<svg width="32" height="32" viewBox="0 0 32 32" fill="none" xmlns="http://www.w3.org/2000/svg">
<path d="M26.1 14.0484C25.7459 13.947 25.3769 14.152 25.2757 14.506C25.1745 14.86 25.3794 15.2291 25.7333 15.3303C28.7763 16.2006 30.6665 17.4628 30.6665 18.6245C30.6665 19.4746 29.6325 20.4078 27.8297 21.1846C25.8463 22.0393 23.0325 22.6646 19.9037 22.9463L17.1728 22.9093C17.1697 22.9093 17.1666 22.9092 17.1635 22.9092C16.7995 22.9092 16.5021 23.2018 16.4971 23.5669C16.4921 23.935 16.7866 24.2376 17.1547 24.2425L19.9199 24.28C19.923 24.28 19.926 24.28 19.929 24.28C19.9488 24.28 19.9685 24.2792 19.9882 24.2774C23.2679 23.985 26.2401 23.3215 28.3574 22.4092C31.3679 21.1118 31.9999 19.635 31.9999 18.6245C31.9999 16.7616 29.9045 15.1364 26.1 14.0484Z" fill="black"/>
<path d="M6.45866 13.2889C6.09053 13.2889 5.79199 13.5873 5.79199 13.9555C5.79199 14.3237 6.09053 14.6222 6.45866 14.6222H9.20006V17.3777H6.45866C6.09053 17.3777 5.79199 17.6762 5.79199 18.0444C5.79199 18.4126 6.09053 18.7111 6.45866 18.7111H9.86673C10.2349 18.7111 10.5334 18.4126 10.5334 18.0444V9.86668C10.5334 9.49848 10.2349 9.20001 9.86673 9.20001H6.45866C6.09053 9.20001 5.79199 9.49848 5.79199 9.86668C5.79199 10.2349 6.09053 10.5333 6.45866 10.5333H9.20006V13.2889H6.45866Z" fill="black"/>
<path d="M12.592 18.7111H16.6809C17.049 18.7111 17.3476 18.4127 17.3476 18.0445V13.9556C17.3476 13.5874 17.0491 13.2889 16.6809 13.2889H13.2586V10.5333H16C16.3682 10.5333 16.6667 10.2349 16.6667 9.86668C16.6667 9.49848 16.3682 9.20001 16 9.20001H12.592C12.2238 9.20001 11.9253 9.49848 11.9253 9.86668V18.0445C11.9253 18.4127 12.2238 18.7111 12.592 18.7111ZM13.2586 14.6222H16.0142V17.3777H13.2586V14.6222Z" fill="black"/>
<path d="M19.4079 18.7111H23.4968C23.8649 18.7111 24.1635 18.4127 24.1635 18.0445V9.86668C24.1635 9.49848 23.8649 9.20001 23.4968 9.20001H19.4079C19.0397 9.20001 18.7412 9.49848 18.7412 9.86668V18.0445C18.7412 18.4127 19.0397 18.7111 19.4079 18.7111ZM20.0745 10.5333H22.8301V17.3778H20.0745V10.5333Z" fill="black"/>
<path d="M12.1905 20.3691C11.9527 20.0881 11.532 20.0529 11.2509 20.2907C10.9698 20.5285 10.9347 20.9491 11.1725 21.2303L12.6635 22.9929C9.51713 22.753 6.66747 22.1763 4.5722 21.3496C2.51387 20.5373 1.33333 19.5441 1.33333 18.6245C1.33333 17.5566 2.91573 16.4058 5.5662 15.5461C5.91647 15.4325 6.10827 15.0565 5.99467 14.7062C5.88113 14.356 5.505 14.1642 5.15487 14.2777C3.61293 14.7779 2.3902 15.3729 1.52053 16.0461C0.5116 16.8275 0 17.6949 0 18.6245C0 20.1647 1.41187 21.5359 4.0828 22.5898C6.25373 23.4464 9.1646 24.0477 12.3645 24.307L11.0349 25.7806C10.7883 26.0539 10.8099 26.4755 11.0833 26.7221C11.2107 26.8372 11.3705 26.8939 11.5297 26.8939C11.7117 26.8939 11.8932 26.8197 12.0248 26.6738L14.4506 23.9855C14.5611 23.863 14.6223 23.7039 14.6223 23.5389V23.4879C14.6223 23.3303 14.5665 23.1777 14.4647 23.0574L12.1905 20.3691Z" fill="black"/>
<path d="M25.4274 9.16574H28.1527C28.5208 9.16574 28.8193 8.86727 28.8193 8.49907V5.77281C28.8193 5.40461 28.5208 5.10614 28.1527 5.10614H25.4274C25.0593 5.10614 24.7607 5.40461 24.7607 5.77281V8.49907C24.7607 8.86727 25.0593 9.16574 25.4274 9.16574ZM26.0941 6.43947H27.486V7.83241H26.0941V6.43947Z" fill="black"/>
</svg>
